<mxfile host="app.diagrams.net" modified="2023-08-20T17:10:28.251Z" agent="Mozilla/5.0 (Windows NT 10.0; Win64; x64) AppleWebKit/537.36 (KHTML, like Gecko) Chrome/115.0.0.0 Safari/537.36" version="21.6.8" etag="VKaKbiMlOV8Bupz8Q4rf" type="github">
  <diagram name="Trang-1" id="vgxDlpFd73Ow9WMnKA9i">
    <mxGraphModel>
      <root>
        <mxCell id="0" />
        <mxCell id="1" parent="0" />
      </root>
    </mxGraphModel>
  </diagram>
</mxfile>
